<svg width="80" height="80" viewBox="0 0 80 80" fill="none" xmlns="http://www.w3.org/2000/svg">
<rect x="0.5" y="0.5" width="79" height="79" rx="39.5" fill="#DCDFFD"/>
<rect x="0.5" y="0.5" width="79" height="79" rx="39.5" stroke="#0011BB" stroke-dasharray="3 2"/>
<path d="M54.935 41.1106C55.5513 40.3981 56.25 39.5897 56.25 38.5535C56.25 37.5172 55.5513 36.7093 54.9354 35.9968C54.5654 35.5693 54.1833 35.1272 54.09 34.7777C53.9888 34.3981 54.1008 33.8047 54.2092 33.2306C54.3808 32.3218 54.5758 31.2922 54.0746 30.426C53.5667 29.5485 52.5688 29.2014 51.6879 28.8947C51.1433 28.7056 50.5804 28.5093 50.3121 28.2418C50.0442 27.9735 49.8483 27.4106 49.6592 26.866C49.3529 25.9851 49.0058 24.9872 48.1275 24.4789C47.2612 23.9776 46.2308 24.1726 45.3229 24.3443C44.7488 24.4526 44.155 24.5643 43.7758 24.4631C43.4263 24.3697 42.9846 23.9876 42.5571 23.6185C41.8446 23.0022 41.0362 22.3035 40 22.3035C38.9637 22.3035 38.1558 23.0022 37.4433 23.6181C37.0158 23.9881 36.5737 24.3701 36.2242 24.4635C35.8442 24.5631 35.2512 24.4531 34.6771 24.3443C33.7687 24.1718 32.7387 23.9776 31.8725 24.4789C30.995 24.9868 30.6479 25.9847 30.3412 26.8656C30.1521 27.4101 29.9558 27.9731 29.6883 28.2414C29.42 28.5093 28.8571 28.7051 28.3125 28.8943C27.4317 29.2006 26.4337 29.5476 25.9254 30.426C25.4246 31.2918 25.6192 32.3222 25.7908 33.2306C25.8996 33.8047 26.0113 34.3981 25.9096 34.7777C25.8163 35.1272 25.4342 35.5689 25.065 35.9964C24.4488 36.7089 23.75 37.5172 23.75 38.5535C23.75 39.5897 24.4487 40.3977 25.0646 41.1102C25.4346 41.5377 25.8167 41.9797 25.91 42.3293C26.0112 42.7089 25.8992 43.3022 25.7908 43.8764C25.6192 44.7852 25.4242 45.8147 25.9254 46.681C26.4333 47.5585 27.4313 47.9056 28.3121 48.2122C28.8567 48.4014 29.4196 48.5977 29.6879 48.8652C29.7204 48.8977 29.7517 48.9347 29.7821 48.9756L26.7054 58.7193C26.6258 58.9727 26.6708 59.2489 26.8279 59.4631C26.985 59.6768 27.2342 59.8035 27.5 59.8035H35C35.3633 59.8035 35.6854 59.5681 35.7946 59.2214L37.5704 53.5981C38.2521 54.1847 39.0246 54.8035 40 54.8035C40.9758 54.8035 41.7479 54.1843 42.4296 53.5977L44.2054 59.221C44.3146 59.5681 44.6362 59.8035 45 59.8035H52.5C52.7658 59.8035 53.015 59.6768 53.1721 59.4631C53.3292 59.2485 53.3742 58.9727 53.2946 58.7193L50.2179 48.9756C50.2483 48.9352 50.2796 48.8981 50.3117 48.8656C50.58 48.5977 51.1429 48.4018 51.6875 48.2127C52.5683 47.9064 53.5662 47.5593 54.0746 46.681C54.5754 45.8152 54.3808 44.7847 54.2092 43.8764C54.1004 43.3022 53.9888 42.7089 54.0904 42.3293C54.1833 41.9797 54.5654 41.5377 54.935 41.1106ZM34.3892 58.1368H28.6371L30.78 51.351C31.0283 51.8631 31.3583 52.3302 31.8725 52.6281C32.7387 53.1293 33.7692 52.9339 34.6771 52.7627C35.2079 52.6622 35.7475 52.5664 36.1275 52.6318L34.3892 58.1368ZM45.6108 58.1368L43.8725 52.6314C44.2521 52.5668 44.7917 52.6618 45.3229 52.7622C46.2313 52.9343 47.2612 53.1289 48.1275 52.6277C48.6421 52.3302 48.9717 51.8627 49.22 51.3502L51.3629 58.1368H45.6108ZM53.6742 40.0206C53.1812 40.5902 52.6721 41.1793 52.48 41.8989C52.2804 42.6452 52.4283 43.4285 52.5712 44.1856C52.695 44.8397 52.8229 45.5164 52.6317 45.8464C52.4338 46.1881 51.7762 46.4172 51.1404 46.6381C50.4183 46.8893 49.6717 47.1489 49.1337 47.6872C48.5954 48.2252 48.3358 48.9718 48.0846 49.6939C47.8633 50.3297 47.6346 50.9872 47.2929 51.1852C46.9629 51.376 46.2862 51.2485 45.6329 51.1247C44.8746 50.981 44.0917 50.8335 43.3458 51.0327C42.6258 51.2252 42.0367 51.7347 41.4671 52.2277C40.9496 52.6752 40.4158 53.1368 40 53.1368C39.5842 53.1368 39.05 52.6747 38.5329 52.2277C37.9633 51.7347 37.3742 51.2256 36.6546 51.0335C36.3942 50.9635 36.1292 50.9364 35.8629 50.9364C35.3654 50.9364 34.8613 51.0318 34.3679 51.1247C33.7129 51.2485 33.0367 51.376 32.7071 51.1852C32.3654 50.9872 32.1362 50.3297 31.9154 49.6939C31.6642 48.9718 31.4046 48.2252 30.8663 47.6872C30.3283 47.1489 29.5817 46.8893 28.8596 46.6381C28.2238 46.4168 27.5663 46.1881 27.3683 45.8464C27.1771 45.5164 27.3054 44.8402 27.4288 44.1864C27.5721 43.4289 27.72 42.6456 27.5208 41.8993C27.3283 41.1793 26.8187 40.5902 26.3258 40.0206C25.8783 39.5031 25.4167 38.9693 25.4167 38.5535C25.4167 38.1377 25.8788 37.6035 26.3258 37.0864C26.8187 36.5168 27.3279 35.9277 27.52 35.2081C27.7196 34.4618 27.5717 33.6785 27.4288 32.9214C27.305 32.2672 27.1771 31.5906 27.3683 31.2606C27.5663 30.9189 28.2238 30.6897 28.8596 30.4689C29.5817 30.2176 30.3283 29.9581 30.8663 29.4197C31.4046 28.8818 31.6642 28.1351 31.9154 27.4131C32.1367 26.7772 32.3654 26.1197 32.7071 25.9218C33.0363 25.7306 33.7133 25.8585 34.3671 25.9822C35.125 26.126 35.9083 26.2735 36.6542 26.0743C37.3742 25.8818 37.9633 25.3722 38.5329 24.8793C39.0504 24.4318 39.5842 23.9701 40 23.9701C40.4158 23.9701 40.95 24.4322 41.4671 24.8793C42.0367 25.3722 42.6258 25.8814 43.3454 26.0735C44.0921 26.2735 44.875 26.1256 45.6321 25.9822C46.2862 25.8581 46.9629 25.7306 47.2929 25.9218C47.6346 26.1197 47.8637 26.7772 48.0846 27.4131C48.3358 28.1351 48.5954 28.8818 49.1337 29.4197C49.6717 29.9581 50.4183 30.2176 51.1404 30.4689C51.7762 30.6901 52.4338 30.9189 52.6317 31.2606C52.8229 31.5906 52.6946 32.2668 52.5712 32.9206C52.4279 33.6781 52.28 34.4614 52.4792 35.2077C52.6717 35.9277 53.1812 36.5168 53.6742 37.0864C54.1217 37.6039 54.5833 38.1377 54.5833 38.5535C54.5833 38.9693 54.1213 39.5035 53.6742 40.0206ZM40 28.1368C34.2562 28.1368 29.5833 32.8097 29.5833 38.5535C29.5833 44.2972 34.2562 48.9702 40 48.9702C45.7437 48.9702 50.4167 44.2972 50.4167 38.5535C50.4167 32.8097 45.7437 28.1368 40 28.1368ZM40 47.3035C35.1754 47.3035 31.25 43.3781 31.25 38.5535C31.25 33.7289 35.1754 29.8035 40 29.8035C44.8246 29.8035 48.75 33.7289 48.75 38.5535C48.75 43.3781 44.8246 47.3035 40 47.3035ZM45.1258 36.1322L42.1108 35.6722L40.7546 32.7827C40.6171 32.4902 40.3229 32.3035 40 32.3035C39.6771 32.3035 39.3829 32.4902 39.2454 32.7827L37.8892 35.6722L34.8742 36.1322C34.5654 36.1793 34.3092 36.3956 34.2096 36.6918C34.11 36.9881 34.185 37.3147 34.4033 37.5381L36.5854 39.7747L35.8542 42.9493C35.7812 43.2656 35.8983 43.5947 36.1542 43.7939C36.41 43.9935 36.7579 44.0256 37.0467 43.8781L40 42.3647L42.9533 43.8785C43.0733 43.9402 43.2033 43.9702 43.3333 43.9702C43.5154 43.9702 43.6962 43.9106 43.8454 43.7943C44.1008 43.5947 44.2183 43.2656 44.1454 42.9497L43.4142 39.7752L45.5962 37.5385C45.8142 37.3152 45.8892 36.9885 45.79 36.6922C45.6908 36.396 45.4346 36.1797 45.1258 36.1322ZM41.9033 38.9368C41.705 39.1397 41.6242 39.4297 41.6875 39.706L42.1187 41.5785L40.3796 40.6868C40.2604 40.626 40.1296 40.5952 39.9996 40.5952C39.8692 40.5952 39.7388 40.6256 39.6196 40.6868L37.8804 41.5785L38.3117 39.706C38.375 39.4297 38.2942 39.1402 38.0958 38.9368L36.7283 37.5356L38.58 37.2527C38.8546 37.2102 39.0908 37.0343 39.2088 36.7827L40 35.0981L40.7904 36.7827C40.9083 37.0343 41.1446 37.2102 41.4192 37.2527L43.2708 37.5356L41.9033 38.9368Z" fill="#0011BB"/>
</svg>
