<svg width="80" height="80" viewBox="0 0 80 80" fill="none" xmlns="http://www.w3.org/2000/svg">
<rect x="0.5" y="0.5" width="79" height="79" rx="39.5" fill="#FF6881" fill-opacity="0.15"/>
<rect x="0.5" y="0.5" width="79" height="79" rx="39.5" stroke="#FF6881" stroke-dasharray="3 2"/>
<path d="M54.5037 50.8034C54.7154 49.6794 54.71 48.5253 54.4877 47.4034L57.541 40.0348C57.5413 40.0299 57.5413 40.025 57.541 40.0201C58.0358 38.6655 58.7609 37.4066 59.6843 36.2988C59.9141 36.0561 60.0065 35.7142 59.9303 35.3888L58.6783 29.9822C58.6634 29.9256 58.641 29.8714 58.6117 29.8208C58.6063 29.8108 58.6043 29.7988 58.599 29.7895C58.5937 29.7802 58.5703 29.7575 58.557 29.7402C58.5297 29.7002 58.4982 29.6633 58.463 29.6302C58.4398 29.6139 58.4155 29.5992 58.3903 29.5862C58.3578 29.5622 58.3233 29.5413 58.287 29.5235C58.2368 29.5045 58.1844 29.4918 58.131 29.4855C58.1157 29.4855 58.1023 29.4755 58.087 29.4742C57.9592 29.4657 57.8317 29.4941 57.7197 29.5562C57.7097 29.5615 57.6977 29.5635 57.6877 29.5695H57.681L52.9737 32.5075C52.6886 32.684 52.5117 32.9923 52.503 33.3275C52.3723 34.7669 51.9931 36.1728 51.3824 37.4828V37.4901L49.8564 41.1788C49.1074 40.7806 48.3056 40.4911 47.4751 40.3188C47.7895 38.1488 47.9051 35.9546 47.8204 33.7635C49.0614 32.2745 49.657 30.3519 49.4751 28.4222C49.0584 24.5369 45.5471 21.7309 45.3971 21.6129C45.1716 21.4353 44.8579 21.422 44.6182 21.5797C44.3785 21.7375 44.2666 22.0309 44.3404 22.3082C44.6838 23.5975 44.3864 24.9582 41.8504 27.7562C40.711 28.8564 40.3499 30.5362 40.9364 32.0075C41.1607 32.5702 41.482 33.0892 41.8858 33.5408C41.7244 34.5708 41.5978 35.5462 41.5104 36.4962C41.3601 38.0674 41.3213 39.6474 41.3944 41.2241C40.7997 41.5466 40.2429 41.9345 39.7345 42.3808L36.5011 28.5542C36.5011 28.5402 36.4878 28.5302 36.4838 28.5175C36.473 28.4731 36.4573 28.4299 36.4371 28.3888L33.1345 22.2895C32.804 21.6791 32.1057 21.3654 31.4298 21.5237C30.7539 21.682 30.2676 22.2731 30.2425 22.9669L29.9918 29.8968C29.992 29.9468 29.9976 29.9967 30.0085 30.0455C30.0085 30.0562 30.0085 30.0655 30.0085 30.0755L33.3072 44.1534C32.7868 44.1764 32.2702 44.2535 31.7658 44.3834L28.1372 35.6202C27.8462 34.9503 27.0745 34.6342 26.3972 34.9075L20.8512 37.2035C20.1725 37.4868 19.8499 38.2651 20.1292 38.9455L25.0505 50.8174C22.1662 50.9688 19.9274 53.3901 20.0018 56.2774C20.0763 59.1647 22.4369 61.4674 25.3252 61.47H54.6584C56.5638 61.4424 58.3097 60.4003 59.2385 58.7364C60.1672 57.0724 60.1378 55.0394 59.1611 53.4031C58.1845 51.7668 56.4091 50.7758 54.5037 50.8034ZM53.8244 33.5475L56.619 31.8035L55.6297 34.1928C55.4887 34.533 55.6502 34.9231 55.9904 35.0642C56.3306 35.2052 56.7207 35.0437 56.8617 34.7035L57.851 32.3142L58.5917 35.5228C57.7992 36.4896 57.1483 37.5641 56.6584 38.7141C55.9633 39.0363 55.1652 39.053 54.4572 38.7602C53.7493 38.4674 53.1961 37.8918 52.9317 37.1728C53.3999 36.0129 53.7005 34.7922 53.8244 33.5475ZM52.291 38.7815C52.7321 39.3207 53.3044 39.7374 53.953 39.9915C54.4686 40.2132 55.0231 40.3302 55.5844 40.3355C55.7194 40.335 55.8543 40.3267 55.9884 40.3108L53.861 45.4441C53.224 44.0396 52.2386 42.8213 50.9984 41.9048L52.291 38.7815ZM43.1578 34.0202L46.5071 34.2248C46.5277 34.8475 46.5204 35.4915 46.4997 36.1455C45.384 36.2252 44.2627 36.171 43.1598 35.9842C43.0758 35.9722 42.9938 35.9628 42.9104 35.9515C42.9771 35.3235 43.0584 34.6875 43.1564 34.0202H43.1578ZM42.8398 28.6515C44.6098 26.6989 45.5271 25.1969 45.7404 23.7849C47.0127 25.0939 47.8525 26.7619 48.1464 28.5635C48.2864 30.1319 47.8015 31.6921 46.7971 32.9048C45.4802 32.8248 44.1778 32.7448 42.8898 32.6648C42.3363 32.1475 42.018 31.4266 42.0083 30.6691C41.9986 29.9116 42.2984 29.1829 42.8384 28.6515H42.8398ZM42.7891 37.2801L42.9824 37.3055C43.8415 37.4383 44.7086 37.5121 45.5778 37.5261C45.8538 37.5261 46.1444 37.5041 46.4357 37.4815C46.3751 38.3395 46.2757 39.2355 46.1497 40.1615C45.9851 40.1528 45.8238 40.1368 45.6584 40.1368C44.6519 40.1386 43.6529 40.3106 42.7038 40.6455C42.673 39.523 42.7011 38.3997 42.7878 37.2801H42.7891ZM37.6325 45.0761L35.7251 36.9515C35.636 36.599 35.2808 36.383 34.9268 36.4659C34.5728 36.5488 34.3505 36.9001 34.4272 37.2555L36.1411 44.5681C35.6699 44.3996 35.1831 44.2783 34.6878 44.2061L31.7618 31.7195C32.1717 31.9061 32.6168 32.003 33.0672 32.0035C33.1092 32.0035 33.1538 31.9975 33.1965 31.9955L33.6678 34.0082C33.7186 34.2437 33.8926 34.4336 34.1229 34.5047C34.3531 34.5758 34.6038 34.517 34.7786 34.3511C34.9533 34.1851 35.0249 33.9378 34.9658 33.7042L34.4938 31.6902C34.9461 31.4899 35.3451 31.1862 35.6585 30.8035L38.6331 43.5228C38.2468 44.0046 37.9115 44.5252 37.6325 45.0761ZM33.5592 30.6095C32.7066 30.7748 31.836 30.4263 31.3332 29.7182L31.4178 27.3702C31.6498 27.4135 31.8852 27.4358 32.1212 27.4368C32.3491 27.4378 32.5764 27.4125 32.7985 27.3615C33.2482 27.2434 33.6689 27.0342 34.0345 26.7469L35.1572 28.8188C35.0234 29.6785 34.398 30.3799 33.5592 30.6108V30.6095ZM31.7332 22.8215C31.824 22.8005 31.9177 22.8425 31.9625 22.9242L33.3918 25.5675C33.134 25.8008 32.8261 25.9718 32.4918 26.0675C32.1502 26.1302 31.7987 26.1136 31.4645 26.0189L31.5732 23.0149C31.5768 22.9217 31.6423 22.8425 31.7332 22.8215ZM26.9085 36.1368L27.4179 37.3675L24.9512 38.3888C24.6588 38.5116 24.4934 38.8234 24.5557 39.1344C24.6179 39.4454 24.8907 39.6694 25.2079 39.6701C25.2955 39.6699 25.3822 39.6527 25.4632 39.6195L27.9299 38.5975L28.4399 39.8295L27.2059 40.3408C26.9118 40.4625 26.7447 40.7751 26.807 41.0873C26.8693 41.3994 27.1436 41.624 27.4619 41.6235C27.5492 41.6231 27.6357 41.6059 27.7165 41.5728L28.9505 41.0615L29.4605 42.2935L26.9919 43.3168C26.6978 43.4385 26.5307 43.7511 26.593 44.0633C26.6553 44.3754 26.9296 44.5999 27.2479 44.5994C27.3352 44.5992 27.4217 44.582 27.5025 44.5488L29.9692 43.5274L30.5085 44.8294C28.3361 45.821 26.7431 47.7599 26.1919 50.0834L21.3599 38.4328L26.9085 36.1368ZM54.6584 60.1367H25.3252C23.1161 60.1367 21.3252 58.3458 21.3252 56.1367C21.3252 53.9276 23.1161 52.1367 25.3252 52.1367C25.7115 52.1354 26.0958 52.1911 26.4659 52.3021C26.6658 52.3624 26.8824 52.3257 27.0512 52.2027C27.22 52.0798 27.3214 51.8848 27.3252 51.6761C27.3726 49.3001 28.7461 47.1507 30.8823 46.1094C33.0184 45.0682 35.5577 45.3104 37.4585 46.7368C37.6264 46.8618 37.8434 46.9006 38.0443 46.8416C38.2452 46.7827 38.4067 46.6327 38.4805 46.4368C39.7829 42.9656 43.3827 40.9238 47.0303 41.5872C50.678 42.2507 53.3283 45.4292 53.325 49.1367C53.3263 49.8992 53.2128 50.6574 52.9884 51.3861C52.9183 51.6128 52.974 51.8596 53.1346 52.0342C53.2953 52.2089 53.5366 52.285 53.7684 52.2341C54.0607 52.1697 54.3591 52.1371 54.6584 52.1367C56.8675 52.1367 58.6583 53.9276 58.6583 56.1367C58.6583 58.3458 56.8675 60.1367 54.6584 60.1367Z" fill="#FF6881"/>
<path d="M45.7828 31.9362C45.992 31.937 46.1895 31.8395 46.3161 31.6728C47.1484 30.5463 47.4701 29.1224 47.2028 27.7475C47.1459 27.5124 46.9662 27.3266 46.7331 27.2619C46.5001 27.1972 46.2503 27.2638 46.0804 27.4359C45.9105 27.608 45.8471 27.8586 45.9148 28.0908C46.0744 29.0678 45.8362 30.068 45.2535 30.8682C45.1019 31.0702 45.0776 31.3404 45.1905 31.5663C45.3034 31.7922 45.5343 31.9348 45.7868 31.9348L45.7828 31.9362Z" fill="#FF6881"/>
<path d="M44.9052 52.1362C44.4094 52.1378 43.9205 52.2517 43.4752 52.4696C42.2759 50.8285 40.0366 50.3478 38.2695 51.352C36.5023 52.3562 35.7692 54.526 36.5652 56.3962C36.67 56.642 36.9114 56.8016 37.1786 56.8015C37.2684 56.8018 37.3573 56.7836 37.4399 56.7482C37.6026 56.6789 37.731 56.5478 37.7971 56.3838C37.8631 56.2198 37.8612 56.0362 37.7919 55.8735C37.6468 55.5353 37.5719 55.171 37.5719 54.8029C37.5719 53.3301 38.7658 52.1362 40.2385 52.1362C41.2729 52.1311 42.215 52.7305 42.6485 53.6696C42.663 53.6913 42.6785 53.7122 42.6952 53.7322C42.7057 53.7551 42.7175 53.7773 42.7305 53.7989C42.7425 53.8136 42.7599 53.8202 42.7732 53.8342C42.8045 53.8667 42.8391 53.8957 42.8765 53.9209C42.9098 53.9465 42.9456 53.9689 42.9832 53.9876C43.0219 54.0038 43.0621 54.0163 43.1032 54.0249C43.1442 54.0357 43.1862 54.0421 43.2285 54.0442C43.3151 54.0435 43.4011 54.0291 43.4832 54.0016C43.501 53.9983 43.5185 53.9941 43.5359 53.9889C43.5575 53.9749 43.5782 53.9595 43.5979 53.9429C43.6219 53.9322 43.6452 53.9202 43.6679 53.9069C44.018 53.6237 44.4548 53.4693 44.9052 53.4696C45.6847 53.4708 46.3924 53.9249 46.7185 54.6329C46.8713 54.9679 47.2668 55.1157 47.6018 54.9629C47.9369 54.8101 48.0846 54.4146 47.9318 54.0796C47.389 52.8963 46.207 52.1374 44.9052 52.1362Z" fill="#FF6881"/>
<path d="M31.7812 47.5037C31.6805 47.5364 29.3252 48.351 29.3252 50.803C29.3252 51.1712 29.6237 51.4697 29.9919 51.4697C30.36 51.4697 30.6585 51.1712 30.6585 50.803C30.7129 49.873 31.3248 49.0685 32.2065 48.7677C32.5563 48.6502 32.7446 48.2715 32.6272 47.9217C32.5097 47.5719 32.131 47.3836 31.7812 47.501V47.5037Z" fill="#FF6881"/>
<path d="M41.162 46.784C41.215 46.7974 41.2694 46.8041 41.324 46.804C41.6296 46.8036 41.8958 46.5957 41.97 46.2993C42.2769 45.0544 43.3789 44.1689 44.6607 44.1373C45.0289 44.1364 45.3266 43.8372 45.3257 43.469C45.3247 43.1008 45.0255 42.8031 44.6573 42.804C42.7625 42.8291 41.125 44.1339 40.6774 45.9753C40.5879 46.3324 40.8049 46.6945 41.162 46.784Z" fill="#FF6881"/>
</svg>
