<svg width="80" height="80" viewBox="0 0 80 80" fill="none" xmlns="http://www.w3.org/2000/svg">
<rect x="0.5" y="0.5" width="79" height="79" rx="39.5" fill="#FFECD9"/>
<rect x="0.5" y="0.5" width="79" height="79" rx="39.5" stroke="#D16900" stroke-dasharray="3 2"/>
<path d="M58.5688 52.3543H21.0694C19.9977 52.3543 19.1328 51.4895 19.1328 50.4178V23.7386C19.1328 22.6763 20.0071 21.802 21.0694 21.802H58.5688C59.6404 21.802 60.5053 22.6669 60.5053 23.7386V50.4178C60.5053 51.4895 59.6404 52.3543 58.5688 52.3543ZM21.0694 22.7421C20.5241 22.7421 20.0729 23.1933 20.0729 23.7386V50.4178C20.0729 50.9724 20.5241 51.4143 21.0694 51.4143H58.5688C59.1234 51.4143 59.5652 50.963 59.5652 50.4178V23.7386C59.5652 23.1933 59.114 22.7421 58.5688 22.7421H21.0694Z" fill="#D16900"/>
<path d="M57.516 49.8351H22.1224C21.8592 49.8351 21.6523 49.6283 21.6523 49.365V24.7916C21.6523 24.5284 21.8592 24.3215 22.1224 24.3215H57.5066C57.7699 24.3215 57.9767 24.5284 57.9767 24.7916V49.365C57.9861 49.6283 57.7699 49.8351 57.516 49.8351ZM22.5924 48.895H57.0366V25.2616H22.5924V48.895Z" fill="#D16900"/>
<path d="M34.5688 59.0946C34.4466 59.0946 34.315 59.0476 34.221 58.9442C34.0424 58.7562 34.0518 58.4554 34.2492 58.2768C37.2668 55.4753 36.0165 52.1945 35.9601 52.0535C35.8661 51.8091 35.9789 51.5365 36.2234 51.4424C36.4678 51.3484 36.7404 51.4612 36.8344 51.7057C36.8532 51.7433 37.2386 52.7303 37.1916 54.1122C37.1446 55.3907 36.7122 57.2615 34.8885 58.963C34.7945 59.057 34.6816 59.0946 34.5688 59.0946Z" fill="#D16900"/>
<path d="M45.0701 59.095C44.9573 59.095 44.8445 59.0574 44.7505 58.9728C42.9268 57.2806 42.4943 55.4005 42.4473 54.122C42.4003 52.7401 42.7858 51.753 42.8046 51.7154C42.8986 51.471 43.1712 51.3582 43.4156 51.4522C43.66 51.5462 43.7728 51.8188 43.6788 52.0633C43.6224 52.2043 42.3815 55.4851 45.3898 58.2865C45.5778 58.4651 45.5872 58.7566 45.418 58.954C45.3239 59.048 45.2017 59.095 45.0701 59.095Z" fill="#D16900"/>
<path d="M49.2533 61.8011H30.3861C30.1228 61.8011 29.916 61.5943 29.916 61.331V59.9773C29.916 58.9715 30.7339 58.1536 31.7398 58.1536H47.8996C48.9054 58.1536 49.7233 58.9715 49.7233 59.9773V61.331C49.7233 61.5849 49.5165 61.8011 49.2533 61.8011ZM30.8561 60.861H48.7832V59.9773C48.7832 59.4885 48.3884 59.0937 47.8996 59.0937H31.7398C31.2509 59.0937 30.8561 59.4885 30.8561 59.9773V60.861Z" fill="#D16900"/>
<path d="M31.2696 43.6962C31.185 43.6962 31.1004 43.6774 31.0252 43.6304L25.6104 40.3872C25.4694 40.3026 25.3848 40.1522 25.3848 39.983V33.8443C25.3848 33.6751 25.4788 33.5153 25.6198 33.4307C25.7608 33.3461 25.9488 33.3461 26.0898 33.4401L31.5046 36.6833C31.6456 36.7679 31.7302 36.9183 31.7302 37.0875V43.2262C31.7302 43.3954 31.6362 43.5552 31.4952 43.6398C31.4294 43.6774 31.3448 43.6962 31.2696 43.6962ZM26.3248 39.7197L30.7996 42.3989V37.3508L26.3248 34.6716V39.7197Z" fill="#D16900"/>
<path d="M31.2689 43.6971C31.1843 43.6971 31.1091 43.6783 31.0338 43.6407C30.8834 43.5561 30.7988 43.4057 30.7988 43.2271V37.0884C30.7988 36.9192 30.8834 36.7688 31.0244 36.6842L36.4393 33.4409C36.5803 33.3563 36.7683 33.3563 36.9093 33.4315C37.0597 33.5161 37.1443 33.6759 37.1443 33.8452V39.9838C37.1443 40.153 37.0597 40.3034 36.9187 40.3881L31.5039 43.6313C31.4381 43.6783 31.3535 43.6971 31.2689 43.6971ZM31.7389 37.3516V42.3998L36.2136 39.7206V34.6724L31.7389 37.3516Z" fill="#D16900"/>
<path d="M25.8544 34.3145C25.6852 34.3145 25.5254 34.2299 25.4408 34.0701C25.3185 33.8445 25.4031 33.5531 25.6288 33.4309L31.0436 30.5166C31.1846 30.4414 31.3538 30.4414 31.4854 30.5166L36.9002 33.4309C37.1258 33.5531 37.2104 33.8351 37.0882 34.0701C36.966 34.3051 36.684 34.3803 36.449 34.2581L31.2598 31.4661L26.0706 34.2581C26.0048 34.2957 25.9296 34.3145 25.8544 34.3145Z" fill="#D16900"/>
<path d="M35.3305 29.1073H27.2083C26.9451 29.1073 26.7383 28.9005 26.7383 28.6373C26.7383 28.374 26.9451 28.1672 27.2083 28.1672H35.3305C35.5937 28.1672 35.8006 28.374 35.8006 28.6373C35.8006 28.9005 35.5937 29.1073 35.3305 29.1073Z" fill="#D16900"/>
<path d="M33.9669 30.4699C33.8447 30.4699 33.7225 30.4229 33.6379 30.3289C33.4593 30.1503 33.4593 29.8495 33.6379 29.6614L34.6719 28.6274L33.6379 27.5933C33.4593 27.4147 33.4593 27.1139 33.6379 26.9258C33.8165 26.7378 34.1173 26.7472 34.3053 26.9258L35.659 28.3077C35.8376 28.4864 35.8376 28.7872 35.659 28.9752L34.2959 30.3383C34.2019 30.4229 34.0891 30.4699 33.9669 30.4699Z" fill="#D16900"/>
<path d="M28.5722 30.4706C28.45 30.4706 28.3278 30.4236 28.2432 30.3296L26.8801 28.9665C26.7014 28.7879 26.7014 28.4871 26.8801 28.2991L28.2432 26.936C28.4218 26.7573 28.7226 26.7573 28.9106 26.936C29.0892 27.1146 29.0892 27.4154 28.9106 27.6034L27.8765 28.6375L28.9106 29.6716C29.0892 29.8502 29.0892 30.151 28.9106 30.339C28.8166 30.4236 28.6944 30.4706 28.5722 30.4706Z" fill="#D16900"/>
<path d="M35.3305 45.9999H27.2083C26.9451 45.9999 26.7383 45.7931 26.7383 45.5299C26.7383 45.2667 26.9451 45.0598 27.2083 45.0598H35.3305C35.5937 45.0598 35.8006 45.2667 35.8006 45.5299C35.8006 45.7931 35.5937 45.9999 35.3305 45.9999Z" fill="#D16900"/>
<path d="M33.9669 47.3621C33.8447 47.3621 33.7225 47.3151 33.6379 47.2211C33.4593 47.0331 33.4593 46.7417 33.6379 46.5536L34.6719 45.5196L33.6379 44.4855C33.4593 44.2975 33.4593 44.0061 33.6379 43.818C33.8165 43.63 34.1173 43.63 34.3053 43.818L35.6684 45.1811C35.847 45.3692 35.847 45.6606 35.6684 45.8486L34.3053 47.2117C34.2019 47.3151 34.0891 47.3621 33.9669 47.3621Z" fill="#D16900"/>
<path d="M28.5722 47.3625C28.45 47.3625 28.3278 47.3155 28.2432 47.2215L26.8801 45.8584C26.7014 45.6703 26.7014 45.3789 26.8801 45.1909L28.2432 43.8278C28.4218 43.6398 28.7226 43.6398 28.9106 43.8278C29.0892 44.0158 29.0892 44.3072 28.9106 44.4953L27.8765 45.5293L28.9106 46.5634C29.0892 46.7514 29.0892 47.0428 28.9106 47.2309C28.8166 47.3155 28.6944 47.3625 28.5722 47.3625Z" fill="#D16900"/>
<path d="M42.0507 47.362H40.4808C39.7945 47.362 39.2305 46.8074 39.2305 46.1211V31.315C39.2305 31.0518 39.4373 30.845 39.7005 30.845H42.8215C43.0848 30.845 43.2916 31.0518 43.2916 31.315V46.1117C43.301 46.798 42.7369 47.362 42.0507 47.362ZM40.1799 31.7851V46.1117C40.1799 46.281 40.321 46.4126 40.4902 46.4126H42.0507C42.2199 46.4126 42.3515 46.2716 42.3515 46.1117V31.7851H40.1799Z" fill="#D16900"/>
<path d="M42.8309 31.7864C42.6429 31.7864 42.4643 31.6735 42.3891 31.4855L41.2704 28.5807L40.1517 31.4855C40.0577 31.73 39.7851 31.8522 39.5406 31.7582C39.2962 31.6641 39.174 31.3915 39.268 31.1471L40.8285 27.1048C40.8943 26.9262 41.073 26.804 41.2704 26.804C41.4678 26.804 41.637 26.9262 41.7122 27.1048L43.2727 31.1471C43.3667 31.3915 43.2445 31.6641 43.0001 31.7582C42.9437 31.777 42.8873 31.7864 42.8309 31.7864Z" fill="#D16900"/>
<path d="M42.8313 44.5898H39.7103C39.447 44.5898 39.2402 44.3829 39.2402 44.1197C39.2402 43.8565 39.447 43.6497 39.7103 43.6497H42.8313C43.0945 43.6497 43.3013 43.8565 43.3013 44.1197C43.3013 44.3829 43.0851 44.5898 42.8313 44.5898Z" fill="#D16900"/>
<path d="M53.7841 28.9745H45.6243C45.3611 28.9745 45.1543 28.7677 45.1543 28.5045C45.1543 28.2412 45.3611 28.0344 45.6243 28.0344H53.7841C54.0474 28.0344 54.2542 28.2412 54.2542 28.5045C54.2542 28.7677 54.0474 28.9745 53.7841 28.9745Z" fill="#D16900"/>
<path d="M53.7841 31.8319H45.6243C45.3611 31.8319 45.1543 31.6251 45.1543 31.3619C45.1543 31.0987 45.3611 30.8918 45.6243 30.8918H53.7841C54.0474 30.8918 54.2542 31.0987 54.2542 31.3619C54.2542 31.6251 54.0474 31.8319 53.7841 31.8319Z" fill="#D16900"/>
<path d="M53.7841 34.6894H45.6243C45.3611 34.6894 45.1543 34.4826 45.1543 34.2193C45.1543 33.9561 45.3611 33.7493 45.6243 33.7493H53.7841C54.0474 33.7493 54.2542 33.9561 54.2542 34.2193C54.2542 34.4826 54.0474 34.6894 53.7841 34.6894Z" fill="#D16900"/>
<path d="M53.7841 37.5486H45.6243C45.3611 37.5486 45.1543 37.3418 45.1543 37.0786C45.1543 36.8154 45.3611 36.6086 45.6243 36.6086H53.7841C54.0474 36.6086 54.2542 36.8154 54.2542 37.0786C54.2542 37.3418 54.0474 37.5486 53.7841 37.5486Z" fill="#D16900"/>
<path d="M53.7841 40.4062H45.6243C45.3611 40.4062 45.1543 40.1993 45.1543 39.9361C45.1543 39.6729 45.3611 39.4661 45.6243 39.4661H53.7841C54.0474 39.4661 54.2542 39.6729 54.2542 39.9361C54.2542 40.1993 54.0474 40.4062 53.7841 40.4062Z" fill="#D16900"/>
<path d="M53.7841 43.2636H45.6243C45.3611 43.2636 45.1543 43.0568 45.1543 42.7936C45.1543 42.5303 45.3611 42.3235 45.6243 42.3235H53.7841C54.0474 42.3235 54.2542 42.5303 54.2542 42.7936C54.2542 43.0568 54.0474 43.2636 53.7841 43.2636Z" fill="#D16900"/>
<path d="M53.7841 46.121H45.6243C45.3611 46.121 45.1543 45.9142 45.1543 45.651C45.1543 45.3878 45.3611 45.1809 45.6243 45.1809H53.7841C54.0474 45.1809 54.2542 45.3878 54.2542 45.651C54.2542 45.9142 54.0474 46.121 53.7841 46.121Z" fill="#D16900"/>
</svg>
